# xmcd
#
# Track frame offsets: 
#        187
#        24699
#        48452
#
# Disc length: 969 seconds
#
# Revision: 1
# Processed by: cddbd v1.4PL0 Copyright (c) Steve Scherf et al.
# Submitted via: ExactAudioCopy v0.90b4
#
DISCID=2003c703
DTITLE=UA - Amai Unmei
DYEAR=1997
DGENRE=JPop
TTITLE0=Amai Unmei
TTITLE1=Mayonaka no Guitar
TTITLE2=Amai Unmei(inst)
EXTD=
EXTT0=
EXTT1=
EXTT2=
PLAYORDER=
